<?xml version="1.0" encoding="UTF-8"?>
<svg width="24px" height="24px" viewBox="0 0 24 24" version="1.1" xmlns="http://www.w3.org/2000/svg" xmlns:xlink="http://www.w3.org/1999/xlink">
    <!-- Generator: Sketch 52.5 (67469) - http://www.bohemiancoding.com/sketch -->
    <title>Artboard</title>
    <desc>Created with Sketch.</desc>
    <g id="Page-1" stroke="none" stroke-width="1" fill="none" fill-rule="evenodd">
        <g id="Artboard" transform="translate(-7.000000, -6.000000)">
            <g id="baseline-how_to_reg-24px-(1)" transform="translate(7.000000, 6.000000)">
                <polygon id="Path" points="0 0 24 0 24 24 0 24"></polygon>
                <g id="Group" transform="translate(3.000000, 4.000000)" fill="#FFFFFF">
                    <path d="M6,13 L9,10.06 C8.61,10.02 8.32,10 8,10 C5.33,10 0,11.34 0,14 L0,16 L9,16 L6,13 Z M8,8 C10.21,8 12,6.21 12,4 C12,1.79 10.21,0 8,0 C5.79,0 4,1.79 4,4 C4,6.21 5.79,8 8,8 Z" id="Shape" fill-rule="nonzero"></path>
                    <polygon id="Path" points="12.47 16.5 9 13 10.4 11.59 12.47 13.67 17.6 8.5 19 9.91"></polygon>
                </g>
            </g>
        </g>
    </g>
</svg>