<?xml version="1.0" encoding="UTF-8"?>
<svg width="24px" height="24px" viewBox="0 0 24 24" version="1.1" xmlns="http://www.w3.org/2000/svg" xmlns:xlink="http://www.w3.org/1999/xlink">
    <!-- Generator: Sketch 52.5 (67469) - http://www.bohemiancoding.com/sketch -->
    <title>Artboard</title>
    <desc>Created with Sketch.</desc>
    <g id="Page-1" stroke="none" stroke-width="1" fill="none" fill-rule="evenodd">
        <g id="Artboard" transform="translate(-7.000000, -6.000000)">
            <g id="baseline-how_to_reg-24px-(1)" transform="translate(7.000000, 6.000000)">
                <polygon id="Path" points="0 0 24 0 24 24 0 24"></polygon>
            </g>
            <g id="baseline-group-24px" transform="translate(7.000000, 6.000000)">
                <polygon id="Path" points="0 0 24 0 24 24 0 24"></polygon>
                <path d="M17,11 C18.66,11 19.99,9.66 19.99,8 C19.99,6.34 18.66,5 17,5 C15.34,5 14,6.34 14,8 C14,9.66 15.34,11 17,11 Z M9,11 C10.66,11 11.99,9.66 11.99,8 C11.99,6.34 10.66,5 9,5 C7.34,5 6,6.34 6,8 C6,9.66 7.34,11 9,11 Z M9,13 C6.67,13 2,14.17 2,16.5 L2,19 L16,19 L16,16.5 C16,14.17 11.33,13 9,13 Z M17,13 C16.71,13 16.38,13.02 16.03,13.05 C17.19,13.89 18,15.02 18,16.5 L18,19 L24,19 L24,16.5 C24,14.17 19.33,13 17,13 Z" id="Shape" fill="#FFFFFF" fill-rule="nonzero"></path>
            </g>
        </g>
    </g>
</svg>