<svg width="90" height="151" xmlns="http://www.w3.org/2000/svg"><path d="M44.588 1.4c19.944 0 33.258 9.067 39.943 27.2 1.449 3.733 2.451 8.033 3.008 12.9.558 4.867.836 11.1.836 18.7v29.2c0 6.933-.306 12.9-.92 17.9-.612 5-1.587 9.567-2.924 13.7-3.231 9.467-8.245 16.7-15.041 21.7-6.797 5-15.098 7.5-24.902 7.5-19.945 0-33.259-9.067-39.944-27.2-1.449-3.733-2.451-8.033-3.008-12.9C1.079 105.233.8 99 .8 91.4V62.2c0-6.933.306-12.9.92-17.9.612-5 1.587-9.567 2.924-13.7 3.231-9.467 8.245-16.7 15.041-21.7 6.797-5 15.098-7.5 24.903-7.5zm0 21.4c-8.245 0-14.123 2.8-17.632 8.4-3.51 5.6-5.265 14.867-5.265 27.8v33.6c0 12.933 1.755 22.2 5.265 27.8 3.51 5.6 9.387 8.4 17.632 8.4 8.245 0 14.122-2.8 17.632-8.4 3.51-5.6 5.264-14.867 5.264-27.8V59c0-12.933-1.755-22.2-5.264-27.8-3.51-5.6-9.387-8.4-17.632-8.4z" fill="#4A4A4A" fill-rule="evenodd"/></svg>