<svg width="1000" height="509" viewBox="0 0 1000 509" fill="none" xmlns="http://www.w3.org/2000/svg">
<g clip-path="url(#clip0_6_116)">
<path d="M1000 509V0H0V509H1000Z" fill="#485D1B"/>
<path d="M197.64 362.408C198.52 362.052 199.4 361.675 200.34 361.278C201.6 361.624 202.72 361.93 203.8 362.245C249.92 375.622 307.26 376.182 358.6 372.873C402.86 370.023 446.66 364.75 484.08 351.841C486.06 351.159 488.02 350.447 490.02 349.744C490.84 349.958 491.58 350.121 492.26 350.324C495.62 351.322 498.96 352.35 502.34 353.338C507.12 354.732 511.82 356.178 516.26 357.847C522.64 360.25 529.68 362.113 536.5 364.149C541.44 365.625 546.36 367.132 551.48 368.445C632.4 389.304 737.16 381.109 815.2 361.451C818.8 360.545 822.34 359.578 825.82 358.58C829.52 357.522 833.18 356.432 836.76 355.272C841.78 353.643 846.74 351.943 851.7 350.263C852.94 349.846 854.12 349.388 855.44 348.899C856.16 349.062 856.9 349.194 857.56 349.398C860.9 350.426 864.2 351.475 867.52 352.513C905.06 364.129 949.62 367.233 992.92 367.875C994.34 367.895 997.58 368.19 999.98 368.119V310.663C989.06 310.052 978.02 310.134 967.06 309.798C952.8 309.35 941 307.792 928.3 304.525C927.72 304.372 927.24 304.128 926.6 303.873C928.66 301.837 930.64 299.872 932.64 297.908C960.16 270.819 974.5 240.33 977.4 209.902C980.16 180.909 964.22 153.067 905.38 142.744C829.32 129.388 759.44 149.096 735.48 187.76C716.9 217.75 715.5 253.289 739.2 282.587C742.66 286.862 747.2 290.863 751.44 294.925C756.22 299.516 761.52 303.955 766.6 308.464C767 308.81 767.36 309.167 767.82 309.604C766.92 309.859 766.16 310.093 765.36 310.287C646.14 339.635 579.22 310.714 577.72 309.9C578.02 309.676 578.22 309.472 578.5 309.299C582.34 306.978 586.16 304.647 590.08 302.356C595.78 299.048 600.6 295.444 605.04 291.677C606.62 290.334 608.36 289.02 610.22 287.758C649.56 260.914 666.06 224.225 657.8 191.089C651.44 165.598 627.52 136.575 581 123.779C530.62 109.924 469.26 125.092 436.96 146.348C404 168.031 383.08 198.093 385.6 225.09C388.72 258.623 397.22 287.748 414.76 306.367C404.12 309.381 371.06 316.792 294.8 315.855C289.5 315.794 284.3 315.366 279.1 314.878C278.5 314.827 277.94 314.623 277.22 314.46C280.74 311.243 284.16 308.149 287.52 305.023C291.38 301.44 295.28 297.877 298.96 294.243C302.96 290.293 306.16 286.17 308.52 281.884C309.58 279.97 310.72 278.077 311.94 276.194C329.64 248.636 332.58 213.638 319.74 185.327C299.02 139.558 204.64 104.009 120.58 138.021C19.62 178.873 28.1999 272.936 103.66 320.741C105.74 322.055 107.72 323.419 109.82 324.803C109.3 325.088 108.88 325.363 108.36 325.577C106.84 326.198 105.4 326.88 103.74 327.389C86.02 332.835 70.94 336.877 50.68 331.593C35.96 327.755 23.12 321.22 13 314.644C8.05999 311.427 3.91995 307.965 0.059946 304.423V382.575C70.2199 400.359 139.98 385.934 197.64 362.408ZM839.54 265.993C838.52 264.079 837.36 262.186 836.56 260.242C834.96 256.363 833.14 252.495 832.66 248.524C832.26 245.267 831.82 242.009 831.54 238.741C830.46 226.302 831.82 212.548 840.3 200.79C841.92 198.541 843.92 196.301 847.14 194.54C864.52 185.022 873.3 200.292 873.16 207.01C872.72 228.276 859.96 247.659 842.32 266.675C842.1 266.92 841.64 267.103 841.32 267.296C840 267.032 839.8 266.482 839.54 265.993ZM501.94 265.464C500.82 264.253 499.58 263.062 498.66 261.809C482.74 239.983 482.16 215.389 498.1 193.522C500.9 189.674 504.28 185.846 509.54 182.741C517.08 178.272 530.16 174.831 540.1 179.392C558.06 187.638 551.28 210.166 547.76 220.753C543.04 234.893 532.4 248.718 514.46 259.896C511.28 261.881 507.82 263.764 504.48 265.678C504.12 265.881 503.62 266.004 503.04 266.227C502.58 265.922 502.18 265.708 501.94 265.464ZM183.76 279.828C182.8 279.034 181.8 278.25 180.98 277.415C177.6 273.964 174.18 270.534 170.96 267.042C149.76 243.984 131.58 206.104 167.58 184.38C192.48 169.344 219.5 183.047 224.56 198.052C233.3 223.97 217.62 253.981 191.32 276.255C189.96 277.405 188.5 278.525 187.04 279.635C186.62 279.96 185.98 280.215 185.16 280.642C184.5 280.256 184.06 280.062 183.76 279.828Z" fill="#D4F952"/>
</g>
<defs>
<clipPath id="clip0_6_116">
<rect width="509" height="1000" fill="white" transform="matrix(0 1 -1 0 1000 0)"/>
</clipPath>
</defs>
</svg>
